<svg xmlns="http://www.w3.org/2000/svg" viewBox="0 0 16 10.1" height="100%"><path fill="#2d2c29" d="M16,2.06c0-.28-.05-.31-.33-.37a2,2,0,0,0-.87,0c-.13,0-.17.08-.15.21a6,6,0,0,1,0,1.69,5.69,5.69,0,0,1-.6,2,5.38,5.38,0,0,1-1,1.4h0s0,0,0,0a.08.08,0,0,0,0,0,4.17,4.17,0,0,0,.23-2.72A4.33,4.33,0,1,0,5,6.45s0,0,0,.07l0,0a6,6,0,0,1-.65-1.13,6.36,6.36,0,0,1-.48-1.82,7.62,7.62,0,0,1,0-1.17c0-.27.05-.53.08-.79A8.62,8.62,0,0,1,4,.41a.17.17,0,0,0,0-.1C4,.18,3.89.15,3.78.13A8.18,8.18,0,0,0,2.48,0,8.79,8.79,0,0,0,1.12.08,4.4,4.4,0,0,0,.33.23.27.27,0,0,0,.12.46a5.2,5.2,0,0,0-.1.78A7.83,7.83,0,0,0,.18,3.45,8.32,8.32,0,0,0,2.85,8a8.07,8.07,0,0,0,6.3,2,8.22,8.22,0,0,0,2.07-.49A8.43,8.43,0,0,0,14,7.78,6.12,6.12,0,0,0,15.8,4.63,8.76,8.76,0,0,0,16,2.94C16,2.64,16,2.35,16,2.06ZM6.74,7.28a3.14,3.14,0,0,1,0-4.36Zm2.44,1A3.11,3.11,0,0,1,7,7.52h4.05A3.1,3.1,0,0,1,9.18,8.27Zm-.56-3.5s0-.06.06-.06h.65s.05,0,.05.06V6.68s0,.05-.06.05H8.69s-.07,0-.07-.06V4.77Zm2.5-1.92h-.43s-.07,0-.07.06c0,.49,0,1,0,1.46,0,.77,0,1.53,0,2.3,0,.06,0,.08-.07.07h-.44s-.07,0-.07-.07V4.13c0-.07,0-.09-.08-.09H9.41c-.05,0-.06,0-.06-.06V2.92c0-.06,0-.07-.07-.07H8.73c-.05,0-.06,0-.06.07V4c0,.05,0,.07-.07.07H8.05C8,4,8,4.06,8,4.11V6.64c0,.07,0,.09-.08.08H7.46s-.07,0-.07-.07V2.92c0-.11,0-.09-.09-.09H6.83a3.14,3.14,0,0,1,4.41,0Zm.19,4.44c0-.1,0-4.32,0-4.37A3.16,3.16,0,0,1,11.31,7.29Z"/></svg>