<svg xmlns="http://www.w3.org/2000/svg" viewBox="0 0 45.45 45.45"><defs><style>.cls-1{fill:#2a2b2f;}.cls-2{fill:none;}</style></defs><title>tingu</title><g id="Layer_2" data-name="Layer 2"><g id="Layer_1-2" data-name="Layer 1"><path class="cls-1" d="M30.23,21.94c0,2.06-3.11,4.9-6.94,4.9s-6.95-2.84-6.95-4.9,3.11-3.72,7-3.72S30.23,19.89,30.23,21.94Z"/><path class="cls-1" d="M23.29,29.79c-5.14,0-9.54-4.19-9.54-7.62a.78.78,0,0,1,1.56,0c0,2.39,3.57,6.06,8,6.06s8-3.67,8-6.06a.78.78,0,1,1,1.56,0C32.83,25.6,28.43,29.79,23.29,29.79Z"/><path class="cls-1" d="M18.25,36.59a38,38,0,0,0,4.43.27c.72,0,1.43,0,2.14-.07s1.11-.09,1.88-.18,1.86-.23,2.54-.36a27.44,27.44,0,0,0,9.33-3.5c4.37-2.73,6.78-6.39,6.78-10.32s-2.41-7.6-6.78-10.32A30.44,30.44,0,0,0,22.68,8,30.44,30.44,0,0,0,6.79,12.11C2.41,14.83,0,18.5,0,22.43S2.41,30,6.79,32.75a26.7,26.7,0,0,0,7.62,3.13M8.55,26.13A1.18,1.18,0,1,1,9.72,25,1.17,1.17,0,0,1,8.55,26.13Zm28.07,0A1.18,1.18,0,1,1,37.79,25,1.18,1.18,0,0,1,36.62,26.13Zm4.63-5.54c-2.91-1.24-7.56.69-8.38,4.72-.54,2.63,1.22,6.46-.75,8.53l0,0a32.62,32.62,0,0,1-9.42,1.35,32.3,32.3,0,0,1-9.48-1.37c-2-2.07-.21-5.9-.75-8.53-.83-4-5.47-6-8.38-4.72a5.64,5.64,0,0,0-2.42,1.67c.07-3.61,2.61-6.86,6.64-9.15a4.23,4.23,0,0,1,2.11-.6c4-.61,7.7,2.76,12.28,2.76s8.54-3.38,12.26-2.76a4.6,4.6,0,0,1,2.2.64c4,2.31,6.52,5.56,6.57,9.16A5.57,5.57,0,0,0,41.25,20.59Z"/><rect class="cls-2" width="45.45" height="45.45"/></g></g></svg>